<svg width="67" height="70" viewBox="0 0 67 70" fill="none" xmlns="http://www.w3.org/2000/svg">
                        <path d="M21.5895 51.3157C25.0875 56.782 23.6457 64.0286 18.2169 67.5893C12.7882 71.1499 5.504 69.6454 1.94337 64.2167C0.68963 62.311 0.0627589 60.1796 0.0126092 58.0483C-0.0124656 56.7695 0.0126092 36.02 0.0126092 36.02L17.6026 47.5294C17.6152 47.5545 20.411 49.4852 21.5895 51.3157Z" fill="#1BC8FF"></path>
                        <path d="M57.3838 0.0376124C57.3462 0.0376124 56.5939 0 56.5563 0C50.8894 0 46.2756 4.56362 46.213 10.2431L46.7019 31.3812L0 1.98091V26.4289L67 68.5923L66.8997 10.4562C66.9624 4.73915 63.1009 0.1003 57.3838 0.0376124Z" fill="#1BC8FF"></path>
                    </svg>